<?xml version="1.0" encoding="UTF-8"?>
<svg width="38px" height="56px" viewBox="0 0 38 56" version="1.1" xmlns="http://www.w3.org/2000/svg" xmlns:xlink="http://www.w3.org/1999/xlink">
    <!-- Generator: Sketch 59.1 (86144) - https://sketch.com -->
    <title>ilucki_santa_mobile</title>
    <desc>Created with Sketch.</desc>
    <g id="Page-1" stroke="none" stroke-width="1" fill="none" fill-rule="evenodd">
        <g id="ilucki_santa_mobile" fill-rule="nonzero">
            <path d="M11.7642286,28.5421714 C10.6422629,28.2341714 9.97625143,27.0622857 10.2856457,25.9393143 L11.6046857,21.1361143 C11.9124571,20.0131429 13.0832,19.3466286 14.2051429,19.6562286 C15.3272,19.9643429 15.9931429,21.1361143 15.6837714,22.2590857 L14.3648,27.0622857 C14.0570286,28.1852571 12.8861714,28.8518857 11.7642286,28.5421714 Z" id="Path" fill="#FFFFFF"></path>
            <path d="M18.8154286,28.5421714 C17.6934857,28.2341714 17.0274286,27.0622857 17.3368,25.9393143 L18.6558857,21.1361143 C18.9636571,20.0131429 20.1344,19.3466286 21.2563429,19.6562286 C22.3784,19.9643429 23.0443429,21.1361143 22.7349714,22.2590857 L21.416,27.0622857 C21.1082286,28.1852571 19.9389714,28.8518857 18.8154286,28.5421714 Z" id="Path" fill="#FFFFFF"></path>
            <path d="M33.9965714,20.8446857 C34.0274286,20.7566857 34.0568,20.6686857 34.0828571,20.5789714 L37.3868571,8.54910857 C37.7548571,7.20937143 37.5740571,5.84518857 36.9829714,4.69777143 C36.7045714,4.08005714 36.0010286,3.16897143 35.0630857,2.2644 C34.612,1.82923429 34.1610286,1.44948571 33.7425143,1.14307429 C33.4657143,0.92304 33.1627429,0.730717714 32.8387429,0.567732571 C32.7654857,0.530245714 32.6970286,0.497649143 32.6286857,0.468312 C32.3827429,0.357482286 32.1254857,0.264580571 31.8568,0.191237714 C29.0250286,-0.587830857 26.0890286,1.08439429 25.3106286,3.91707429 L22.3990857,14.5126857 L18.0529143,14.5176 L18.5788571,12.6025143 C19.0201143,10.9938743 18.6733714,9.35099429 17.7712,8.08948571 C17.4097143,7.55652571 16.8739429,6.93066286 16.2258286,6.30643429 C15.8284571,5.92505143 15.4328,5.58603429 15.0598857,5.30081143 C14.6918857,4.99114286 14.2782857,4.72710857 13.8256,4.52337143 C13.8206857,4.52174857 13.8157714,4.51849143 13.8109714,4.51685714 C13.5683429,4.40929143 13.3158857,4.31801143 13.0521143,4.24467429 C10.2219543,3.46723429 7.28432,5.13782857 6.50595429,7.97050286 L4.45906286,15.4189714 L1.64030857,25.3545143 C0.423896,29.7795429 1.50515429,34.3006857 4.15454857,37.6500571 C4.74891429,38.4193143 5.50774857,39.2636571 6.37893714,40.1013714 C6.85116571,40.5561143 7.32502857,40.9781714 7.78424,41.3595429 C8.26136,41.772 8.76941714,42.1549714 9.30516571,42.5021714 C9.81322286,42.8411429 10.2789371,43.1067429 10.6811543,43.2828571 C11.4546286,43.6642286 12.2737143,43.9803429 13.1352,44.2166857 C14.3596571,44.5540571 15.5988571,44.7170286 16.8202286,44.7170286 C21.5865143,44.7170286 26.1085714,42.2445714 28.6651429,38.02 L31.5213714,29.6980571 L33.9883429,20.8642286 L33.9965714,20.8446857 Z M33.3190857,6.11899429 L30.0150857,18.1489143 C30.0036571,18.188 29.9906286,18.2238857 29.9776,18.2613714 L27.1507429,28.3582857 L30.3538286,32.7296 L25.2928,34.2290286 L25.0598857,34.6462857 C22.4609143,39.2929143 17.0709714,41.5536 11.9545143,40.1453714 C5.83179429,38.4601143 2.22164571,32.1052571 3.90214857,25.9868571 L6.72416,16.0513143 L8.77267429,8.59310857 C9.13580571,7.27130286 10.3375657,6.40259429 11.6451429,6.40259429 C11.9057143,6.40259429 12.1710857,6.43682286 12.4332571,6.51016 C14.0161143,6.94533714 14.9508571,8.58985143 14.5144,10.1740686 L12.6742857,16.8726857 L24.192,16.8596571 L27.5757714,4.53968 C28.0105143,2.95546286 29.6536,2.01993143 31.2363429,2.45509714 C32.8192,2.89026286 33.7538286,4.53478857 33.3190857,6.11899429 Z" id="Shape" fill="#8E7BFF"></path>
            <path d="M34.1531429,31.1236571 C33.7342857,27.1985143 32.4466286,24.1654857 32.4310857,24.1345143 C32.3923429,24.0413714 32.2953143,23.9870857 32.1945143,24.0026286 C32.0937143,24.0142857 32.0161143,24.0957714 32.0044571,24.1926857 C31.0774857,30.8870857 28.0057143,34.4282286 23.1264,34.4282286 C21.1794286,34.4282286 19.3603429,33.8736 18.1773714,33.4042286 C17.9408,33.3112 17.7701714,33.2374857 17.6344,33.1793143 C17.3085714,33.0396571 17.1766857,32.9814857 16.8819429,32.9660571 C16.4746286,32.9466286 16.1139429,33.1211429 15.7997714,33.2724571 C15.7184,33.3112 15.6446857,33.3499429 15.5670857,33.3810286 C13.4106286,34.3428571 11.448,34.8315429 9.7376,34.8315429 C6.54941714,34.8315429 4.19513143,33.1870857 2.73678857,29.9406857 C1.64302857,27.4894857 1.49564571,24.9994286 1.49177143,24.9761143 C1.48788571,24.8675429 1.40256,24.7784 1.29784,24.7667429 C1.18924571,24.7550857 1.08839771,24.8210286 1.05736914,24.9218286 C-0.0829298286,28.6646857 -0.300129143,32.3144 0.401891429,35.7779429 C0.964283429,38.5473143 2.12009143,41.2002286 3.83054857,43.6592 C6.73947429,47.8442286 10.3116343,50.0588571 10.3504229,50.0821714 C10.4163543,50.1209143 10.4939314,50.1248 10.5637371,50.0937143 C10.6335543,50.0627429 10.6801029,49.9968 10.6878514,49.9230857 C10.8507543,48.7712 11.3937486,47.7666286 11.6536,47.3361143 C13.9691429,49.7408 13.9380571,53.7202286 13.8139429,55.3531429 C13.8061714,55.4306286 13.8061714,55.4617143 13.8061714,55.4849143 C13.8061714,55.5432 13.8178286,55.5897143 13.8372571,55.6323429 C13.8798857,55.7177143 13.9652571,55.7681143 14.0582857,55.7681143 C14.2405714,55.7681143 14.4306286,55.7681143 16.5096,52.0989714 C17.2387429,50.8113143 17.9485714,49.5081143 18.2820571,48.8992 C18.6932571,49.8921143 18.3092571,51.3814857 18.0688,52.3084571 C17.9019429,52.9483429 17.8322286,53.216 17.964,53.3827429 C18.0338286,53.472 18.1501714,53.5107429 18.2742857,53.472 C19.7093714,53.0259429 21.2491429,52.0834286 22.8472,50.6677714 C24.1154286,49.5429714 25.4302857,48.1195429 26.7490286,46.4362286 C28.3314286,44.4155429 29.5454857,42.4917714 30.1310857,41.5260571 L30.2474286,43.7716571 C30.2513143,43.8609143 30.3094857,43.9385143 30.3948571,43.9694857 C30.4802286,44.0005714 30.5732571,43.9772571 30.6353143,43.9074286 C32.2332571,42.1466286 33.3232,40.0094857 33.8700571,37.5505143 C34.3044571,35.5956571 34.3974857,33.4314286 34.1531429,31.1236571 Z" id="Path" fill="#FFFFFF"></path>
        </g>
    </g>
</svg>