<?xml version="1.0" encoding="UTF-8"?>
<svg width="80px" height="80px" viewBox="0 0 80 80" version="1.1" xmlns="http://www.w3.org/2000/svg" xmlns:xlink="http://www.w3.org/1999/xlink">
    <!-- Generator: Sketch 48.2 (47327) - http://www.bohemiancoding.com/sketch -->
    <title>mrsl color</title>
    <desc>Created with Sketch.</desc>
    <defs></defs>
    <g id="Page-1" stroke="none" stroke-width="1" fill="none" fill-rule="evenodd">
        <g id="mrsl-color">
            <g id="mrsl" transform="translate(1.000000, 13.000000)">
                <polygon id="Shape" fill="#4B4B4D" points="74.8860564 38.6583751 77.4632814 40.5460416 0 51.1221455"></polygon>
                <polygon id="Shape" fill="#373435" points="77.4632814 40.5460416 0 51.1221455 75.2394551 43.0887886"></polygon>
                <path d="M21.4021729,31.8145067 L15.8081293,1.21534691 L38.4946049,0 L62.0516482,1.2670638 L56.6817112,31.642117 L57.4919424,31.4697274 C59.9571142,32.8143665 62.4136664,34.1590057 64.8788382,35.5036448 C56.7592865,41.7786274 48.0622295,47.5622996 39.0117738,53.0615289 C29.9440792,47.6743529 21.350456,41.8131054 13.2050458,35.5036448 L20.2471623,31.409391 L21.4021729,31.8145067 Z" id="Shape" fill="#373435"></path>
                <polygon id="Shape" fill="#376CB3" points="48.5966374 39.6065181 54.888859 35.9690968 39.0117738 46.1314657 39.0117738 43.4163289 44.3817109 41.2786975 44.3817109 30.8922221"></polygon>
                <path d="M52.2340586,5.74057476 L60.724248,2.54274708 C60.258796,5.31822016 59.8019635,8.10231273 59.3365115,10.8864053 C59.3020336,6.46461122 56.6558527,5.07687468 52.2340586,5.74057476 Z" id="Shape" fill="#376CB3"></path>
                <path d="M50.5618792,27.3409957 C54.4751239,25.6774358 56.9058177,23.8587251 57.4316061,21.0487741 L54.888859,35.9690968 L50.5618792,27.3409957 Z" id="Shape" fill="#376CB3"></path>
                <path d="M51.6565534,16.3425372 C52.1823418,12.7568328 48.2949555,14.3945343 44.5885784,15.96328 C44.5885784,18.2215842 44.5885784,20.4885078 44.5885784,22.746812 C47.8122646,21.8417664 51.0100923,20.7557118 51.6565534,16.3425372 Z" id="Shape" fill="#376CB3"></path>
                <path d="M23.8501057,37.1413463 L20.385074,32.7798886 C18.8939037,33.7194121 17.4113529,34.6675551 15.9201826,35.6070786 C23.0053965,41.5803794 30.5646818,46.7520683 38.3739322,51.5100222 L23.8501057,37.1413463 Z" id="Shape" fill="#4B4B4D"></path>
                <polygon id="Shape" fill="#4B4B4D" points="38.8393842 10.8002105 17.4199724 2.54274708 23.3932731 36.5638411 27.1772256 38.2187815 39.0117738 45.2350396"></polygon>
                <polygon id="Shape" fill="#00AFEF" points="38.8393842 10.8002105 33.9521381 8.912544 29.09937 16.4804489 25.4533292 5.63714098 17.4199724 2.54274708 38.3825517 1.2670638 60.724248 2.54274708"></polygon>
                <path d="M27.1772256,38.2187815 L24.5827616,37.1844437 C28.849405,40.2443597 33.6676952,43.2267004 39.0117738,46.1314657 L39.0117738,43.4163289 L33.8142264,41.3993702 L33.7625095,26.1515073 L29.780309,32.5040652 L25.6774358,22.8071484 L27.1772256,38.2187815 Z" id="Shape" fill="#00AFEF"></path>
                <polygon id="Shape" fill="#4B4B4D" points="55.0440097 35.0468123 54.888859 35.9690968 62.603295 35.632937 57.1644021 33.09019"></polygon>
                <polygon id="Shape" fill="#00AFEF" points="74.8860564 38.6583751 77.4632814 40.5460416 63.7669251 42.4164691 63.7669251 42.4164691 61.7672053 40.8391039"></polygon>
                <polygon id="Shape" fill="#376CB3" points="77.4632814 40.5460416 63.7669251 42.4164691 62.9566938 44.3989499 75.2394551 43.0887886"></polygon>
            </g>
        </g>
    </g>
</svg>